<svg width="270" height="310" viewBox="0 0 270 310" fill="none" xmlns="http://www.w3.org/2000/svg">
<g clip-path="url(#clip0)">
<g filter="url(#filter0_dd)">
<path d="M257 6H13C10.2386 6 8 8.23858 8 11V292C8 294.761 10.2386 297 13 297H257C259.761 297 262 294.761 262 292V11C262 8.23858 259.761 6 257 6Z" fill="#F6D491"/>
</g>
<path d="M109 191C134.957 191 156 169.957 156 144C156 118.043 134.957 97 109 97C83.0426 97 62 118.043 62 144C62 169.957 83.0426 191 109 191Z" fill="#EFEFEF" fill-opacity="0.1"/>
<mask id="mask0" style="mask-type:alpha" maskUnits="userSpaceOnUse" x="8" y="6" width="254" height="291">
<path d="M257 6H13C10.2386 6 8 8.23858 8 11V292C8 294.761 10.2386 297 13 297H257C259.761 297 262 294.761 262 292V11C262 8.23858 259.761 6 257 6Z" fill="#F6D491"/>
</mask>
<g mask="url(#mask0)">
<path d="M184 346C251.379 346 306 291.379 306 224C306 156.621 251.379 102 184 102C116.621 102 62 156.621 62 224C62 291.379 116.621 346 184 346Z" fill="#EFEFEF" fill-opacity="0.2"/>
<path d="M185 293C222.555 293 253 262.555 253 225C253 187.445 222.555 157 185 157C147.445 157 117 187.445 117 225C117 262.555 147.445 293 185 293Z" fill="#EFEFEF" fill-opacity="0.16"/>
<path d="M92.8057 85L91.2529 79.9023H83.4453L81.8926 85H77L84.5586 63.4961H90.1104L97.6982 85H92.8057ZM90.1689 76.0938C88.7334 71.4746 87.9229 68.8623 87.7373 68.2568C87.5615 67.6514 87.4346 67.1729 87.3564 66.8213C87.0342 68.0713 86.1113 71.1621 84.5879 76.0938H90.1689ZM118.469 85H113.313L105.549 74.1455V85H101.008V63.584H105.549V73.9551L113.225 63.584H118.059L110.251 73.8672L118.469 85ZM138.713 81.3965H141.906V91.2402H137.526V85H121.764V63.584H126.305V81.2207H134.186V63.584H138.713V81.3965ZM145.802 63.584H149.889V73.9258L149.83 76.6943L149.684 79.8438H149.772L159.659 63.584H165.094V85H161.051V74.7168C161.051 73.3398 161.139 71.2988 161.315 68.5938H161.197L151.266 85H145.802V63.584ZM171.099 63.584H175.186V73.9258L175.128 76.6943L174.981 79.8438H175.069L184.957 63.584H190.391V85H186.348V74.7168C186.348 73.3398 186.436 71.2988 186.612 68.5938H186.495L176.563 85H171.099V63.584Z" fill="#F3F3F3"/>
<path opacity="0.51" d="M97.9951 148C97.9951 153.374 98.4606 157.395 99.3916 160.061C100.365 162.684 101.91 163.996 104.025 163.996C108.088 163.996 110.119 158.664 110.119 148C110.119 137.421 108.088 132.131 104.025 132.131C101.91 132.131 100.365 133.443 99.3916 136.066C98.4606 138.648 97.9951 142.626 97.9951 148ZM126.115 147.873C126.115 157.606 124.232 164.927 120.466 169.836C116.7 174.702 111.177 177.136 103.898 177.136C96.916 177.136 91.5205 174.639 87.7119 169.646C83.9033 164.61 81.999 157.352 81.999 147.873C81.999 128.534 89.2988 118.864 103.898 118.864C111.05 118.864 116.53 121.382 120.339 126.418C124.19 131.411 126.115 138.563 126.115 147.873ZM169.787 120.197L118.308 213H103.073L154.553 120.197H169.787ZM162.995 185.07C162.995 190.445 163.461 194.465 164.392 197.131C165.365 199.755 166.91 201.066 169.025 201.066C173.088 201.066 175.119 195.734 175.119 185.07C175.119 174.491 173.088 169.201 169.025 169.201C166.91 169.201 165.365 170.513 164.392 173.137C163.461 175.718 162.995 179.696 162.995 185.07ZM191.115 184.943C191.115 194.634 189.232 201.934 185.466 206.843C181.7 211.709 176.177 214.143 168.898 214.143C161.916 214.143 156.521 211.646 152.712 206.652C148.903 201.617 146.999 194.38 146.999 184.943C146.999 165.604 154.299 155.935 168.898 155.935C176.05 155.935 181.53 158.452 185.339 163.488C189.19 168.482 191.115 175.633 191.115 184.943Z" fill="#F3F3F3"/>
</g>
</g>
<defs>
<filter id="filter0_dd" x="-2" y="0" width="274" height="318" filterUnits="userSpaceOnUse" color-interpolation-filters="sRGB">
<feFlood flood-opacity="0" result="BackgroundImageFix"/>
<feColorMatrix in="SourceAlpha" type="matrix" values="0 0 0 0 0 0 0 0 0 0 0 0 0 0 0 0 0 0 127 0" result="hardAlpha"/>
<feOffset dy="11"/>
<feGaussianBlur stdDeviation="5"/>
<feColorMatrix type="matrix" values="0 0 0 0 0.540694 0 0 0 0 0.560174 0 0 0 0 0.566667 0 0 0 0.8 0"/>
<feBlend mode="normal" in2="BackgroundImageFix" result="effect1_dropShadow"/>
<feColorMatrix in="SourceAlpha" type="matrix" values="0 0 0 0 0 0 0 0 0 0 0 0 0 0 0 0 0 0 127 0" result="hardAlpha"/>
<feOffset dy="2"/>
<feGaussianBlur stdDeviation="4"/>
<feColorMatrix type="matrix" values="0 0 0 0 0.541176 0 0 0 0 0.560784 0 0 0 0 0.564706 0 0 0 0.49 0"/>
<feBlend mode="normal" in2="effect1_dropShadow" result="effect2_dropShadow"/>
<feBlend mode="normal" in="SourceGraphic" in2="effect2_dropShadow" result="shape"/>
</filter>
<clipPath id="clip0">
<rect width="270" height="310" fill="white"/>
</clipPath>
</defs>
</svg>
