<svg width="16" height="17" viewBox="0 0 16 17" fill="none" xmlns="http://www.w3.org/2000/svg">
<g clip-path="url(#clip0)">
<path d="M15.8045 15.3697L11.2545 10.8197C12.1359 9.73107 12.6665 8.34774 12.6665 6.84109C12.6665 3.34913 9.82522 0.507812 6.33325 0.507812C2.84128 0.507812 0 3.3491 0 6.84106C0 10.333 2.84132 13.1743 6.33328 13.1743C7.83992 13.1743 9.22325 12.6437 10.3119 11.7624L14.8619 16.3123C14.9919 16.4423 15.1625 16.5077 15.3332 16.5077C15.5039 16.5077 15.6745 16.4423 15.8045 16.3123C16.0652 16.0517 16.0652 15.6303 15.8045 15.3697ZM6.33328 11.841C3.57597 11.841 1.33333 9.59838 1.33333 6.84106C1.33333 4.08375 3.57597 1.84111 6.33328 1.84111C9.0906 1.84111 11.3332 4.08375 11.3332 6.84106C11.3332 9.59838 9.09057 11.841 6.33328 11.841Z" fill="white"/>
</g>
<defs>
<clipPath id="clip0">
<rect width="16" height="16" fill="white" transform="translate(0 0.506836)"/>
</clipPath>
</defs>
</svg>
