<svg width="19" height="19" viewBox="0 0 19 19" fill="none" xmlns="http://www.w3.org/2000/svg">
<path d="M14.5469 10.3906C14.6256 10.3906 14.7011 10.3593 14.7568 10.3037C14.8125 10.248 14.8438 10.1725 14.8438 10.0938V9.5C14.8438 9.42126 14.8125 9.34575 14.7568 9.29008C14.7011 9.2344 14.6256 9.20312 14.5469 9.20312C14.4681 9.20312 14.3926 9.2344 14.337 9.29008C14.2813 9.34575 14.25 9.42126 14.25 9.5V10.0938C14.25 10.1725 14.2813 10.248 14.337 10.3037C14.3926 10.3593 14.4681 10.3906 14.5469 10.3906Z" fill="#2D2D2D"/>
<path d="M14.5469 12.1719C14.4681 12.1719 14.3926 12.2032 14.337 12.2588C14.2813 12.3145 14.25 12.39 14.25 12.4688V13.0625C14.25 13.1412 14.2813 13.2167 14.337 13.2724C14.3926 13.3281 14.4681 13.3594 14.5469 13.3594C14.6256 13.3594 14.7011 13.3281 14.7568 13.2724C14.8125 13.2167 14.8438 13.1412 14.8438 13.0625V12.4688C14.8438 12.39 14.8125 12.3145 14.7568 12.2588C14.7011 12.2032 14.6256 12.1719 14.5469 12.1719Z" fill="#2D2D2D"/>
<path d="M13.5694 17.4286C13.6891 17.486 13.8203 17.5158 13.9531 17.5156H17.5156C17.7518 17.5154 17.9781 17.4214 18.1451 17.2545C18.3121 17.0875 18.406 16.8611 18.4062 16.625V8.90625C18.406 8.67012 18.3121 8.44374 18.1451 8.27678C17.9781 8.10981 17.7518 8.01589 17.5156 8.01562H13.9531C13.717 8.01589 13.4906 8.10981 13.3237 8.27678C13.1567 8.44374 13.0628 8.67012 13.0625 8.90625V10.3906H12.4688V9.79688C12.4688 9.71814 12.4375 9.64263 12.3818 9.58695C12.3261 9.53128 12.2506 9.5 12.1719 9.5H10.3906C10.3119 9.5 10.2364 9.53128 10.1807 9.58695C10.125 9.64263 10.0938 9.71814 10.0938 9.79688V10.3906H9.5V9.79688C9.50005 9.75783 9.49237 9.71915 9.4774 9.68308C9.46243 9.64702 9.44047 9.61427 9.41279 9.58672C9.47024 9.46701 9.50004 9.33591 9.5 9.20312H10.0938C10.1725 9.20312 10.248 9.17185 10.3037 9.11617C10.3593 9.0605 10.3906 8.98499 10.3906 8.90625C10.3906 8.82751 10.3593 8.752 10.3037 8.69633C10.248 8.64065 10.1725 8.60938 10.0938 8.60938H9.5C9.5 8.53064 9.46872 8.45513 9.41305 8.39945C9.35737 8.34378 9.28186 8.3125 9.20312 8.3125H7.42188C7.34314 8.3125 7.26763 8.34378 7.21195 8.39945C7.15628 8.45513 7.125 8.53064 7.125 8.60938V9.20249C7.12486 9.33549 7.15466 9.46682 7.21221 9.58672C7.18453 9.61427 7.16257 9.64702 7.1476 9.68308C7.13263 9.71915 7.12495 9.75783 7.125 9.79688V10.3906H5.64062V9.79688H5.9375C6.01624 9.79688 6.09175 9.7656 6.14742 9.70992C6.2031 9.65425 6.23438 9.57874 6.23438 9.5C6.23438 9.42126 6.2031 9.34575 6.14742 9.29008C6.09175 9.2344 6.01624 9.20312 5.9375 9.20312H5.64062V8.90625C5.64062 8.67004 5.54679 8.44351 5.37977 8.27648C5.21274 8.10946 4.98621 8.01563 4.75 8.01562C4.51379 8.01563 4.28726 8.10946 4.12023 8.27648C3.95321 8.44351 3.85938 8.67004 3.85938 8.90625V9.5C3.85938 9.57874 3.89065 9.65425 3.94633 9.70992C4.002 9.7656 4.07751 9.79688 4.15625 9.79688C4.23499 9.79688 4.3105 9.7656 4.36617 9.70992C4.42185 9.65425 4.45312 9.57874 4.45312 9.5V8.90625C4.45312 8.82751 4.4844 8.752 4.54008 8.69633C4.59575 8.64065 4.67126 8.60938 4.75 8.60938C4.82874 8.60938 4.90425 8.64065 4.95992 8.69633C5.0156 8.752 5.04688 8.82751 5.04688 8.90625V10.3906H2.67188V9.79688C2.67188 9.56067 2.57804 9.33413 2.41102 9.16711C2.24399 9.00008 2.01746 8.90625 1.78125 8.90625C1.54504 8.90625 1.31851 9.00008 1.15148 9.16711C0.984458 9.33413 0.890625 9.56067 0.890625 9.79688V10.3906C0.811889 10.3906 0.736378 10.4219 0.680703 10.4776C0.625028 10.5333 0.59375 10.6088 0.59375 10.6875V17.2188C0.59375 17.2975 0.625028 17.373 0.680703 17.4287C0.736378 17.4843 0.811889 17.5156 0.890625 17.5156H13.3594C13.3984 17.5157 13.437 17.508 13.4731 17.4931C13.5091 17.4781 13.5418 17.4562 13.5694 17.4286ZM17.5156 16.9219H13.9531C13.8744 16.9218 13.799 16.8905 13.7433 16.8348C13.6876 16.7792 13.6563 16.7037 13.6562 16.625V11.5781H17.8125V16.625C17.8124 16.7037 17.7811 16.7792 17.7255 16.8348C17.6698 16.8905 17.5943 16.9218 17.5156 16.9219ZM13.6562 8.90625C13.6563 8.82754 13.6876 8.75208 13.7433 8.69643C13.799 8.64077 13.8744 8.60946 13.9531 8.60938H17.5156C17.5943 8.60946 17.6698 8.64077 17.7255 8.69643C17.7811 8.75208 17.8124 8.82754 17.8125 8.90625V10.9844H13.6562V8.90625ZM11.875 10.9844V12.1719H7.71875V10.9844H11.875ZM7.71875 12.7656H11.875V15.7344H7.71875V12.7656ZM10.6875 10.0938H11.875V10.3906H10.6875V10.0938ZM7.71875 10.3906V10.0938H8.90625V10.3906H7.71875ZM7.71875 8.90625H8.90625V9.20249C8.90616 9.28137 8.87479 9.35699 8.81901 9.41277C8.76324 9.46854 8.68762 9.49991 8.60874 9.5H8.01626C7.93738 9.49991 7.86176 9.46854 7.80598 9.41277C7.75021 9.35699 7.71884 9.28137 7.71875 9.20249V8.90625ZM1.48438 9.79688C1.48438 9.71814 1.51565 9.64263 1.57133 9.58695C1.627 9.53128 1.70251 9.5 1.78125 9.5C1.85999 9.5 1.9355 9.53128 1.99117 9.58695C2.04685 9.64263 2.07812 9.71814 2.07812 9.79688V10.3906H1.48438V9.79688ZM13.0625 16.9219H1.1875V10.9844H7.125V16.0312C7.125 16.11 7.15628 16.1855 7.21195 16.2412C7.26763 16.2968 7.34314 16.3281 7.42188 16.3281H12.1719C12.2506 16.3281 12.3261 16.2968 12.3818 16.2412C12.4375 16.1855 12.4688 16.11 12.4688 16.0312V10.9844H13.0625V16.9219Z" fill="#2D2D2D"/>
<path d="M10.3906 13.3594H9.20312C9.12439 13.3594 9.04888 13.3907 8.9932 13.4463C8.93753 13.502 8.90625 13.5775 8.90625 13.6562C8.90625 13.735 8.93753 13.8105 8.9932 13.8662C9.04888 13.9218 9.12439 13.9531 9.20312 13.9531H10.3906C10.4694 13.9531 10.5449 13.9218 10.6005 13.8662C10.6562 13.8105 10.6875 13.735 10.6875 13.6562C10.6875 13.5775 10.6562 13.502 10.6005 13.4463C10.5449 13.3907 10.4694 13.3594 10.3906 13.3594Z" fill="#2D2D2D"/>
<path d="M6.23438 13.9531H2.07812C1.99939 13.9531 1.92388 13.9844 1.8682 14.0401C1.81253 14.0958 1.78125 14.1713 1.78125 14.25V16.0312C1.78125 16.11 1.81253 16.1855 1.8682 16.2412C1.92388 16.2968 1.99939 16.3281 2.07812 16.3281H6.23438C6.31311 16.3281 6.38862 16.2968 6.4443 16.2412C6.49997 16.1855 6.53125 16.11 6.53125 16.0312V14.25C6.53125 14.1713 6.49997 14.0958 6.4443 14.0401C6.38862 13.9844 6.31311 13.9531 6.23438 13.9531ZM5.9375 15.7344H2.375V14.5469H5.9375V15.7344Z" fill="#2D2D2D"/>
<path d="M6.23438 11.5781H2.07812C1.99939 11.5781 1.92388 11.6094 1.8682 11.6651C1.81253 11.7208 1.78125 11.7963 1.78125 11.875V13.0625C1.78125 13.1412 1.81253 13.2167 1.8682 13.2724C1.92388 13.3281 1.99939 13.3594 2.07812 13.3594H6.23438C6.31311 13.3594 6.38862 13.3281 6.4443 13.2724C6.49997 13.2167 6.53125 13.1412 6.53125 13.0625V11.875C6.53125 11.7963 6.49997 11.7208 6.4443 11.6651C6.38862 11.6094 6.31311 11.5781 6.23438 11.5781ZM5.9375 12.7656H2.375V12.1719H5.9375V12.7656Z" fill="#2D2D2D"/>
<path d="M11.875 3.85938C11.9537 3.85938 12.0292 3.8281 12.0849 3.77242C12.1406 3.71675 12.1719 3.64124 12.1719 3.5625V2.96875C12.1719 2.89001 12.1406 2.8145 12.0849 2.75883C12.0292 2.70315 11.9537 2.67188 11.875 2.67188C11.7963 2.67188 11.7208 2.70315 11.6651 2.75883C11.6094 2.8145 11.5781 2.89001 11.5781 2.96875V3.5625C11.5781 3.64124 11.6094 3.71675 11.6651 3.77242C11.7208 3.8281 11.7963 3.85938 11.875 3.85938Z" fill="#2D2D2D"/>
<path d="M15.4375 3.85938C15.5162 3.85938 15.5917 3.8281 15.6474 3.77242C15.7031 3.71675 15.7344 3.64124 15.7344 3.5625V2.96875C15.7344 2.89001 15.7031 2.8145 15.6474 2.75883C15.5917 2.70315 15.5162 2.67188 15.4375 2.67188C15.3588 2.67188 15.2833 2.70315 15.2276 2.75883C15.1719 2.8145 15.1406 2.89001 15.1406 2.96875V3.5625C15.1406 3.64124 15.1719 3.71675 15.2276 3.77242C15.2833 3.8281 15.3588 3.85938 15.4375 3.85938Z" fill="#2D2D2D"/>
<path d="M0.890625 3.26562H3.5625V4.45312H3.26562C3.2105 4.45313 3.15646 4.46848 3.10956 4.49746C3.06266 4.52645 3.02476 4.56791 3.00011 4.61722L2.10948 6.39847C2.08685 6.44373 2.07616 6.49403 2.07843 6.54458C2.08071 6.59514 2.09586 6.64427 2.12247 6.68732C2.14907 6.73036 2.18624 6.7659 2.23043 6.79054C2.27463 6.81519 2.3244 6.82812 2.375 6.82812H5.34375C5.39435 6.82812 5.44412 6.81519 5.48832 6.79054C5.53252 6.7659 5.56968 6.73036 5.59628 6.68732C5.62289 6.64427 5.63804 6.59514 5.64032 6.54458C5.64259 6.49403 5.6319 6.44373 5.60927 6.39847L4.71864 4.61722C4.69399 4.56791 4.65609 4.52645 4.60919 4.49746C4.56229 4.46848 4.50825 4.45313 4.45312 4.45312H4.15625V3.26562H8.01562V4.45312H7.71875C7.66362 4.45313 7.60958 4.46848 7.56268 4.49746C7.51579 4.52645 7.47789 4.56791 7.45323 4.61722L6.56261 6.39847C6.53997 6.44373 6.52929 6.49403 6.53156 6.54458C6.53383 6.59514 6.54899 6.64427 6.57559 6.68732C6.6022 6.73036 6.63936 6.7659 6.68356 6.79054C6.72776 6.81519 6.77752 6.82812 6.82812 6.82812H9.79688C9.84748 6.82812 9.89724 6.81519 9.94144 6.79054C9.98564 6.7659 10.0228 6.73036 10.0494 6.68732C10.076 6.64427 10.0912 6.59514 10.0934 6.54458C10.0957 6.49403 10.085 6.44373 10.0624 6.39847L9.17177 4.61722C9.14711 4.56791 9.10921 4.52645 9.06231 4.49746C9.01542 4.46848 8.96138 4.45313 8.90625 4.45312H8.60938V3.26562H10.6875V5.64062C10.6875 5.71936 10.7188 5.79487 10.7745 5.85055C10.8301 5.90622 10.9056 5.9375 10.9844 5.9375H18.1094C18.1881 5.9375 18.2636 5.90622 18.3193 5.85055C18.375 5.79487 18.4062 5.71936 18.4062 5.64062V1.78125C18.4062 1.70251 18.375 1.627 18.3193 1.57133C18.2636 1.51565 18.1881 1.48438 18.1094 1.48438H0.890625C0.811889 1.48438 0.736378 1.51565 0.680703 1.57133C0.625028 1.627 0.59375 1.70251 0.59375 1.78125V2.96875C0.59375 3.04749 0.625028 3.123 0.680703 3.17867C0.736378 3.23435 0.811889 3.26562 0.890625 3.26562ZM4.86341 6.23438H2.85534L3.44909 5.04688H4.26966L4.86341 6.23438ZM9.31653 6.23438H7.30847L7.90222 5.04688H8.72278L9.31653 6.23438ZM11.2812 2.07812H13.9531V4.45312H11.2812V2.07812ZM17.8125 5.34375H11.2812V5.04688H17.8125V5.34375ZM17.8125 4.45312H14.5469V2.07812H17.8125V4.45312ZM1.1875 2.07812H10.6875V2.67188H1.1875V2.07812Z" fill="#2D2D2D"/>
<path d="M8.60938 11.875C8.77333 11.875 8.90625 11.7421 8.90625 11.5781C8.90625 11.4142 8.77333 11.2812 8.60938 11.2812C8.44542 11.2812 8.3125 11.4142 8.3125 11.5781C8.3125 11.7421 8.44542 11.875 8.60938 11.875Z" fill="#2D2D2D"/>
<path d="M9.79688 11.875C9.96083 11.875 10.0938 11.7421 10.0938 11.5781C10.0938 11.4142 9.96083 11.2812 9.79688 11.2812C9.63292 11.2812 9.5 11.4142 9.5 11.5781C9.5 11.7421 9.63292 11.875 9.79688 11.875Z" fill="#2D2D2D"/>
<path d="M10.9844 11.875C11.1483 11.875 11.2812 11.7421 11.2812 11.5781C11.2812 11.4142 11.1483 11.2812 10.9844 11.2812C10.8204 11.2812 10.6875 11.4142 10.6875 11.5781C10.6875 11.7421 10.8204 11.875 10.9844 11.875Z" fill="#2D2D2D"/>
</svg>
