<svg width="28" height="28" viewBox="0 0 28 28" fill="none" xmlns="http://www.w3.org/2000/svg">
<path d="M23.2969 12.1224C22.9948 12.1224 22.75 12.3673 22.75 12.6692V25.2656C22.75 26.1703 22.014 26.9062 21.1094 26.9062H6.89062C5.98598 26.9062 5.25 26.1703 5.25 25.2656V2.73438C5.25 1.82973 5.98598 1.09375 6.89062 1.09375H21.1094C22.014 1.09375 22.75 1.82973 22.75 2.73438V8.29423C22.75 8.59627 22.9948 8.84111 23.2969 8.84111C23.5989 8.84111 23.8438 8.59627 23.8438 8.29423V2.73438C23.8438 1.22664 22.6171 0 21.1094 0H6.89062C5.38289 0 4.15625 1.22664 4.15625 2.73438V25.2656C4.15625 26.7734 5.38289 28 6.89062 28H21.1094C22.6171 28 23.8438 26.7734 23.8438 25.2656V12.6692C23.8438 12.3673 23.5989 12.1224 23.2969 12.1224Z" fill="#F3CD82"/>
<path d="M21.6562 3.28125C21.6562 2.67816 21.1656 2.1875 20.5625 2.1875H7.4375C6.83441 2.1875 6.34375 2.67816 6.34375 3.28125V8.29429C6.34375 8.89738 6.83441 9.38804 7.4375 9.38804H20.5625C21.1656 9.38804 21.6562 8.89738 21.6562 8.29429V3.28125ZM20.5625 8.29429L7.4375 8.295C7.4375 8.295 7.43744 8.29478 7.43744 8.29429V3.28125H20.5624V8.29429H20.5625Z" fill="#F3CD82"/>
<path d="M14 15.9502C12.7938 15.9502 11.8125 16.9315 11.8125 18.1377C11.8125 19.3439 12.7938 20.3252 14 20.3252C15.2062 20.3252 16.1875 19.3439 16.1875 18.1377C16.1875 16.9315 15.2062 15.9502 14 15.9502ZM14 19.2314C13.3969 19.2314 12.9062 18.7408 12.9062 18.1377C12.9062 17.5346 13.3969 17.0439 14 17.0439C14.6031 17.0439 15.0938 17.5346 15.0938 18.1377C15.0938 18.7408 14.6031 19.2314 14 19.2314Z" fill="#F3F3F3"/>
<path d="M8.53125 15.9502C7.32506 15.9502 6.34375 16.9315 6.34375 18.1377C6.34375 19.3439 7.32506 20.3252 8.53125 20.3252C9.73744 20.3252 10.7188 19.3439 10.7188 18.1377C10.7188 16.9315 9.73744 15.9502 8.53125 15.9502ZM8.53125 19.2314C7.92816 19.2314 7.4375 18.7408 7.4375 18.1377C7.4375 17.5346 7.92816 17.0439 8.53125 17.0439C9.13434 17.0439 9.625 17.5346 9.625 18.1377C9.625 18.7408 9.13434 19.2314 8.53125 19.2314Z" fill="#F3F3F3"/>
<path d="M14 10.4814C12.7938 10.4814 11.8125 11.4628 11.8125 12.6689C11.8125 13.8751 12.7938 14.8564 14 14.8564C15.2062 14.8564 16.1875 13.8751 16.1875 12.6689C16.1875 11.4628 15.2062 10.4814 14 10.4814ZM14 13.7627C13.3969 13.7627 12.9062 13.272 12.9062 12.6689C12.9062 12.0659 13.3969 11.5752 14 11.5752C14.6031 11.5752 15.0938 12.0659 15.0938 12.6689C15.0938 13.272 14.6031 13.7627 14 13.7627Z" fill="#F3F3F3"/>
<path d="M19.4688 10.4814C18.2626 10.4814 17.2812 11.4628 17.2812 12.6689C17.2812 13.8751 18.2626 14.8564 19.4688 14.8564C20.6749 14.8564 21.6562 13.8751 21.6562 12.6689C21.6562 11.4628 20.6749 10.4814 19.4688 10.4814ZM19.4688 13.7627C18.8657 13.7627 18.375 13.272 18.375 12.6689C18.375 12.0659 18.8657 11.5752 19.4688 11.5752C20.0718 11.5752 20.5625 12.0659 20.5625 12.6689C20.5625 13.272 20.0718 13.7627 19.4688 13.7627Z" fill="#F3F3F3"/>
<path d="M8.53125 10.4814C7.32506 10.4814 6.34375 11.4628 6.34375 12.6689C6.34375 13.8751 7.32506 14.8564 8.53125 14.8564C9.73744 14.8564 10.7188 13.8751 10.7188 12.6689C10.7188 11.4628 9.73744 10.4814 8.53125 10.4814ZM8.53125 13.7627C7.92816 13.7627 7.4375 13.272 7.4375 12.6689C7.4375 12.0659 7.92816 11.5752 8.53125 11.5752C9.13434 11.5752 9.625 12.0659 9.625 12.6689C9.625 13.272 9.13434 13.7627 8.53125 13.7627Z" fill="#F3F3F3"/>
<path d="M14 21.4189C12.7938 21.4189 11.8125 22.4003 11.8125 23.6064C11.8125 24.8126 12.7938 25.7939 14 25.7939C15.2062 25.7939 16.1875 24.8126 16.1875 23.6064C16.1875 22.4003 15.2062 21.4189 14 21.4189ZM14 24.7002C13.3969 24.7002 12.9062 24.2095 12.9062 23.6064C12.9062 23.0034 13.3969 22.5127 14 22.5127C14.6031 22.5127 15.0938 23.0034 15.0938 23.6064C15.0938 24.2095 14.6031 24.7002 14 24.7002Z" fill="#F3F3F3"/>
<path d="M8.53125 21.4189C7.32506 21.4189 6.34375 22.4003 6.34375 23.6064C6.34375 24.8126 7.32506 25.7939 8.53125 25.7939C9.73744 25.7939 10.7188 24.8126 10.7188 23.6064C10.7188 22.4003 9.73744 21.4189 8.53125 21.4189ZM8.53125 24.7002C7.92816 24.7002 7.4375 24.2095 7.4375 23.6064C7.4375 23.0034 7.92816 22.5127 8.53125 22.5127C9.13434 22.5127 9.625 23.0034 9.625 23.6064C9.625 24.2095 9.13434 24.7002 8.53125 24.7002Z" fill="#F3F3F3"/>
<path d="M14 6.33496C14.302 6.33496 14.5469 6.09012 14.5469 5.78809C14.5469 5.48606 14.302 5.24121 14 5.24121C13.698 5.24121 13.4531 5.48606 13.4531 5.78809C13.4531 6.09012 13.698 6.33496 14 6.33496Z" fill="#F3CD82"/>
<path d="M17.5547 6.33496C17.8567 6.33496 18.1016 6.09012 18.1016 5.78809C18.1016 5.48606 17.8567 5.24121 17.5547 5.24121C17.2527 5.24121 17.0078 5.48606 17.0078 5.78809C17.0078 6.09012 17.2527 6.33496 17.5547 6.33496Z" fill="#F3CD82"/>
<path d="M10.4453 6.33496C10.7473 6.33496 10.9922 6.09012 10.9922 5.78809C10.9922 5.48606 10.7473 5.24121 10.4453 5.24121C10.1433 5.24121 9.89844 5.48606 9.89844 5.78809C9.89844 6.09012 10.1433 6.33496 10.4453 6.33496Z" fill="#F3CD82"/>
<path d="M19.4688 15.9502C18.2626 15.9502 17.2812 16.9315 17.2812 18.1377V23.6064C17.2812 24.8126 18.2626 25.7939 19.4688 25.7939C20.6749 25.7939 21.6562 24.8126 21.6562 23.6064V18.1377C21.6562 16.9315 20.6749 15.9502 19.4688 15.9502ZM20.5625 23.6064C20.5625 24.2095 20.0718 24.7002 19.4688 24.7002C18.8657 24.7002 18.375 24.2095 18.375 23.6064V18.1377C18.375 17.5346 18.8657 17.0439 19.4688 17.0439C20.0718 17.0439 20.5625 17.5346 20.5625 18.1377V23.6064Z" fill="#F3CD82"/>
<path d="M23.2969 11.0283C23.5989 11.0283 23.8438 10.7835 23.8438 10.4814C23.8438 10.1794 23.5989 9.93457 23.2969 9.93457C22.9948 9.93457 22.75 10.1794 22.75 10.4814C22.75 10.7835 22.9948 11.0283 23.2969 11.0283Z" fill="#F3CD82"/>
</svg>
