<svg width="27" height="27" viewBox="0 0 27 27" fill="none" xmlns="http://www.w3.org/2000/svg">
<path d="M16.5567 17.9285C15.8535 17.4967 14.9355 17.6281 14.3735 18.2409C13.7466 18.9245 13.1582 19.263 12.5748 19.2755C12.0245 19.289 11.4493 18.9958 10.8623 18.4087L9.20566 16.752C8.61862 16.165 8.327 15.5888 8.33881 15.0395C8.35142 14.4561 8.68987 13.8677 9.37341 13.2408C9.98618 12.6789 10.1175 11.7607 9.68586 11.0577C8.45958 9.06076 6.87813 7.83985 5.76738 7.16733C5.0822 6.75236 4.20708 6.85957 3.63918 7.42763L1.98279 9.08396C1.05562 10.0111 0.595563 11.1057 0.615444 12.3374C0.662483 15.2575 3.42244 17.9176 3.61508 18.0996L4.94647 19.431C5.15245 19.6369 5.48625 19.6369 5.69229 19.431C5.89822 19.2251 5.89822 18.8912 5.69229 18.6852L4.35526 17.3482C4.35146 17.3444 4.3473 17.3404 4.34329 17.3367C4.31698 17.3119 1.70842 14.8301 1.66992 12.3174C1.65542 11.3703 2.00167 10.5565 2.72856 9.82968L4.38495 8.17335C4.6087 7.94954 4.95253 7.90683 5.22105 8.06946C6.04867 8.57065 7.6125 9.69695 8.78706 11.6096C8.95502 11.8832 8.90181 12.2422 8.66055 12.4635C7.76628 13.2837 7.30327 14.1427 7.28434 15.0168C7.26599 15.8648 7.66149 16.6995 8.45979 17.4978L10.1164 19.1545C10.9147 19.9528 11.7479 20.3495 12.5975 20.33C13.4716 20.3111 14.3306 19.8481 15.1508 18.9537C15.372 18.7125 15.7311 18.6592 16.0047 18.8273C17.9173 20.0017 19.0436 21.5656 19.5449 22.3932C19.7075 22.6617 19.6647 23.0056 19.4409 23.2294L17.7845 24.8857C17.0577 25.6126 16.2432 25.9566 15.2968 25.9444C12.7842 25.9058 10.3024 23.2973 10.2779 23.2713C10.274 23.2671 10.2701 23.2631 10.266 23.2591L8.96894 21.962C8.76296 21.7561 8.42915 21.7561 8.22312 21.962C8.01719 22.1679 8.01719 22.5018 8.22312 22.7078L9.51458 23.9992C9.69662 24.1918 12.3567 26.9517 15.2769 26.9989C15.3024 26.9993 15.3278 26.9995 15.3532 26.9995C16.5537 26.9995 17.6223 26.5395 18.5303 25.6316L20.1866 23.9752C20.7547 23.4071 20.8617 22.532 20.4469 21.847C19.7744 20.7362 18.5535 19.1548 16.5567 17.9285Z" fill="#F3CD82"/>
<path d="M19.3833 0C15.5225 0 12.3815 3.14102 12.3815 7.00175C12.3815 8.54107 12.8681 9.99353 13.7906 11.2144V14.3625C13.7906 14.7248 14.165 14.9844 14.5048 14.8556L17.4594 13.7356C18.0831 13.9135 18.7293 14.0036 19.3833 14.0036C23.2441 14.0036 26.3851 10.8626 26.3851 7.00181C26.3852 3.14102 23.2441 0 19.3833 0ZM19.3833 12.9489C18.7743 12.9489 18.1736 12.8572 17.5978 12.6761C17.4849 12.6407 17.3634 12.6441 17.2527 12.686L14.8452 13.5986V11.0539C14.8499 10.9287 14.8098 10.8049 14.7306 10.7057C13.8838 9.64348 13.4362 8.36272 13.4362 7.00181C13.4362 3.72257 16.1041 1.05469 19.3833 1.05469C22.6626 1.05469 25.3304 3.72257 25.3304 7.00175C25.3305 10.281 22.6626 12.9489 19.3833 12.9489Z" fill="#F3CD82"/>
<path d="M19.4529 3.23047C19.1617 3.23047 18.9256 3.46661 18.9256 3.75781L18.9255 7.74875C18.9255 8.03995 19.1616 8.27609 19.4529 8.27609C19.7441 8.27609 19.9802 8.03995 19.9802 7.74875L19.9803 3.75781C19.9803 3.46656 19.7442 3.23047 19.4529 3.23047Z" fill="#F3F3F3"/>
<path d="M19.9399 9.96891C19.8294 9.7035 19.5168 9.57388 19.2511 9.68362C18.9854 9.79336 18.8563 10.107 18.9658 10.3723C19.0755 10.6378 19.3892 10.7679 19.6546 10.6576C19.9205 10.5471 20.049 10.235 19.9399 9.96891Z" fill="white"/>
<path d="M7.42918 20.4798C7.31865 20.2146 7.00641 20.0843 6.74042 20.1946C6.47527 20.3044 6.34486 20.6178 6.45518 20.8833C6.56539 21.1485 6.87832 21.2788 7.14389 21.1686C7.40888 21.0585 7.53966 20.7452 7.42918 20.4798Z" fill="#F3CD82"/>
</svg>
