<svg width="31" height="31" viewBox="0 0 31 31" fill="none" xmlns="http://www.w3.org/2000/svg">
<g clip-path="url(#clip0)">
<path d="M9.36096 8.25414C9.54382 8.21299 9.69006 8.07603 9.74309 7.89625C9.79612 7.71646 9.74762 7.52206 9.61635 7.38826C9.48509 7.25445 9.29166 7.20224 9.11089 7.25181C4.96786 8.28268 2.06147 12.0055 2.06666 16.2749C2.06666 16.5602 2.29798 16.7915 2.58332 16.7915C2.86867 16.7915 3.09999 16.5602 3.09999 16.2749C3.09542 12.48 5.67853 9.1709 9.36096 8.25414Z" fill="#F3CD82"/>
<path d="M29.45 19.3749H22.7333V16.275C22.7375 13.9753 22.0388 11.7292 20.7307 9.8378L21.0113 6.34255C21.0519 5.83859 20.8442 5.34647 20.4548 5.02402C18.9612 3.80832 17.2369 2.90775 15.3858 2.37662C14.857 2.23088 14.2907 2.37773 13.8994 2.76205L11.6736 4.92327C11.5733 4.92068 11.47 4.90828 11.3667 4.90828C5.09197 4.9154 0.00710294 10.0003 -1.52588e-05 16.275V25.5749C0.00169355 27.2863 1.38861 28.6732 3.09998 28.6749H19.1167C20.9129 28.6728 22.4354 27.3528 22.692 25.5749H27.3833V27.1249C27.3833 27.981 28.0773 28.6749 28.9333 28.6749H29.45C30.306 28.6749 31 27.981 31 27.1249V20.9249C31 20.0689 30.306 19.3749 29.45 19.3749ZM14.6217 3.49985C14.7471 3.37313 14.9308 3.32326 15.1032 3.36913C16.8189 3.86231 18.4172 4.69746 19.8018 5.82433C19.9287 5.93269 19.9955 6.09568 19.981 6.26195L19.7883 8.66032C19.6602 8.51927 19.5398 8.37253 19.4044 8.23717C17.6823 6.5114 15.447 5.39051 13.0339 5.04262L14.6217 3.49985ZM6.19998 27.6416H3.09998C1.9586 27.6416 1.03332 26.7163 1.03332 25.5749V20.9249C1.03332 20.6396 1.26464 20.4083 1.54998 20.4083H1.9473C2.13608 20.4083 2.3098 20.5113 2.40042 20.6769C3.44216 22.6162 5.0281 24.2086 6.9631 25.2582C7.1298 25.3472 7.23375 25.5209 7.23332 25.7098V27.1249C7.23332 27.4103 7.002 27.6416 6.71665 27.6416H6.19998ZM21.7 25.0583C21.6983 26.4843 20.5427 27.6399 19.1167 27.6416H8.17158C8.23278 27.4761 8.26494 27.3014 8.26665 27.1249V25.7098C8.26947 25.1332 7.94845 24.6037 7.43585 24.3396C5.69044 23.3761 4.25754 21.9328 3.30665 20.1804C3.03467 19.6838 2.51353 19.375 1.9473 19.3749H1.54998C1.37357 19.3767 1.19878 19.4088 1.03332 19.47V16.275C1.03332 10.568 5.65971 5.94162 11.3667 5.94162C17.0736 5.94162 21.7 10.568 21.7 16.275V25.0583ZM22.7333 24.5416V20.4083H24.2833V21.4416C24.2833 21.727 24.5146 21.9583 24.8 21.9583C25.0853 21.9583 25.3167 21.727 25.3167 21.4416V20.4083H27.3833V24.5416H22.7333ZM29.9667 27.1249C29.9667 27.4103 29.7353 27.6416 29.45 27.6416H28.9333C28.648 27.6416 28.4167 27.4103 28.4167 27.1249V20.4083H29.45C29.7353 20.4083 29.9667 20.6396 29.9667 20.9249V27.1249Z" fill="#F3CD82"/>
<path d="M11.3667 8.00794C11.652 8.00794 11.8833 7.77662 11.8833 7.49128C11.8833 7.20593 11.652 6.97461 11.3667 6.97461C11.0813 6.97461 10.85 7.20593 10.85 7.49128C10.85 7.77662 11.0813 8.00794 11.3667 8.00794Z" fill="#F3CD82"/>
<path d="M16.5333 24.5413C16.5333 25.6827 17.4586 26.6079 18.6 26.6079C19.7414 26.6079 20.6667 25.6827 20.6667 24.5413C20.6667 23.3999 19.7414 22.4746 18.6 22.4746C17.4586 22.4746 16.5333 23.3999 16.5333 24.5413ZM19.6333 24.5413C19.6333 25.112 19.1707 25.5746 18.6 25.5746C18.0293 25.5746 17.5667 25.112 17.5667 24.5413C17.5667 23.9706 18.0293 23.5079 18.6 23.5079C19.1707 23.5079 19.6333 23.9706 19.6333 24.5413Z" fill="white"/>
<path d="M11.3667 11.1084C8.22783 11.1084 5.68332 13.6529 5.68332 16.7917C5.68332 19.9305 8.22783 22.4751 11.3667 22.4751C14.5055 22.4751 17.05 19.9305 17.05 16.7917C17.0463 13.6544 14.5039 11.1121 11.3667 11.1084ZM11.3667 21.4417C8.79853 21.4417 6.71665 19.3599 6.71665 16.7917C6.71665 14.2236 8.79853 12.1417 11.3667 12.1417C13.9348 12.1417 16.0167 14.2236 16.0167 16.7917C16.0138 19.3587 13.9336 21.4389 11.3667 21.4417Z" fill="#F3F3F3"/>
</g>
<defs>
<clipPath id="clip0">
<rect width="31" height="31" fill="white"/>
</clipPath>
</defs>
</svg>
