<svg width="12" height="13" viewBox="0 0 12 13" fill="none" xmlns="http://www.w3.org/2000/svg">
<g clip-path="url(#clip0)">
<path d="M11.6106 0.548584H7.71605C7.55633 0.548584 7.42686 0.678057 7.42686 0.837781V1.38798C7.42686 1.5477 7.55633 1.67717 7.71605 1.67717H9.97312L6.75086 4.89943C6.63793 5.01236 6.63793 5.19548 6.75086 5.30841L7.13992 5.69747C7.1964 5.75395 7.2704 5.78218 7.34438 5.78218C7.41841 5.78218 7.49242 5.75392 7.54887 5.69747L10.7712 2.47518V4.73228C10.7712 4.892 10.9007 5.02147 11.0604 5.02147H11.6106C11.7703 5.02147 11.8998 4.892 11.8998 4.73228V0.837781C11.8998 0.678057 11.7703 0.548584 11.6106 0.548584Z" fill="#666666"/>
<path d="M2.17274 1.67693H4.4298C4.58953 1.67693 4.719 1.54746 4.719 1.38773V0.837537C4.719 0.677813 4.58953 0.54834 4.4298 0.54834H0.535306C0.375582 0.54834 0.246109 0.677813 0.246109 0.837537V4.73203C0.246109 4.89176 0.375582 5.02123 0.535306 5.02123H1.08547C1.2452 5.02123 1.37467 4.89176 1.37467 4.73203V2.47494L4.59696 5.6972C4.65341 5.75368 4.72744 5.7819 4.80145 5.7819C4.87545 5.7819 4.94949 5.75365 5.00594 5.6972L5.395 5.30814C5.50793 5.19521 5.50793 5.01209 5.395 4.89916L2.17274 1.67693Z" fill="#666666"/>
<path d="M11.6106 7.6154H11.0604C10.9007 7.6154 10.7712 7.74491 10.7712 7.9046V10.1617L7.5489 6.93943C7.43602 6.8265 7.25285 6.8265 7.13992 6.93943L6.75086 7.32849C6.63793 7.44139 6.63793 7.62451 6.75086 7.73747L9.97312 10.9597H7.71605C7.55633 10.9597 7.42686 11.0892 7.42686 11.2489V11.7991C7.42686 11.9588 7.55633 12.0883 7.71605 12.0883H11.6106C11.7703 12.0883 11.8998 11.9588 11.8998 11.7991V7.9046C11.8998 7.74488 11.7703 7.6154 11.6106 7.6154Z" fill="#666666"/>
<path d="M5.00678 6.93943C4.89385 6.8265 4.7107 6.8265 4.5978 6.93943L1.37551 10.1617V7.90463C1.37551 7.74491 1.24604 7.61543 1.08631 7.61543H0.536145C0.376422 7.61543 0.246948 7.74491 0.246948 7.90463V11.7991C0.246948 11.9588 0.376422 12.0883 0.536145 12.0883H4.43064C4.59036 12.0883 4.71984 11.9588 4.71984 11.7991V11.249C4.71984 11.0893 4.59036 10.9598 4.43064 10.9598H2.17358L5.39584 7.7375C5.50877 7.6246 5.50877 7.44148 5.39584 7.32849L5.00678 6.93943Z" fill="#666666"/>
</g>
<defs>
<clipPath id="clip0">
<rect width="11.6545" height="11.6545" fill="white" transform="translate(0.246094 0.491699)"/>
</clipPath>
</defs>
</svg>
