<svg width="15" height="15" viewBox="0 0 15 15" fill="none" xmlns="http://www.w3.org/2000/svg">
<g clip-path="url(#clip0)">
<path d="M14.4718 8.68357C14.9193 4.91669 14.2568 2.53857 13.0618 1.46294L13.0624 1.46232C11.1337 -0.374557 4.61993 -0.646432 2.31243 1.54482C1.27618 2.61669 0.911178 4.18982 0.871178 6.13732C0.831178 8.08544 0.783678 11.7348 4.1843 12.7248H4.18743L4.1843 14.2367C4.1843 14.2367 4.16118 14.8492 4.55243 14.9723C4.99993 15.1173 5.20243 14.8329 6.5943 13.1704C8.9218 13.3723 10.7093 12.9098 10.9124 12.8423C11.3824 12.6848 14.0418 12.3329 14.4718 8.68357ZM6.82368 12.1067C6.82368 12.1067 5.35055 13.9436 4.89243 14.4204C4.74243 14.5754 4.57805 14.5611 4.58055 14.2536C4.58055 14.0517 4.5918 11.7436 4.5918 11.7436C1.70868 10.9173 1.87868 7.80982 1.90993 6.18419C1.94118 4.55794 2.23868 3.22607 3.11618 2.32919C5.14055 0.431068 10.8512 0.855443 12.3062 2.22294C14.0849 3.79982 13.4518 8.25482 13.4556 8.40669C13.0899 11.4529 10.9349 11.6461 10.5387 11.7779C10.3693 11.8342 8.79743 12.2386 6.82368 12.1067Z" fill="url(#paint0_linear)"/>
<path d="M7.63875 2.68555C7.39813 2.68555 7.39813 3.06055 7.63875 3.06367C9.50563 3.07805 11.0431 4.3793 11.06 6.76617C11.06 7.01805 11.4288 7.01492 11.4256 6.76305H11.425C11.405 4.19117 9.72625 2.69992 7.63875 2.68555Z" fill="url(#paint1_linear)"/>
<path d="M10.0943 6.37016C10.0887 6.61891 10.4568 6.63078 10.46 6.37891C10.4906 4.96078 9.61621 3.79266 7.97309 3.66953C7.73246 3.65203 7.70746 4.03016 7.94746 4.04766C9.37246 4.15578 10.1231 5.12828 10.0943 6.37016Z" fill="url(#paint2_linear)"/>
<path d="M9.70076 7.98406C9.39201 7.80531 9.07763 7.91656 8.94763 8.09218L8.67576 8.44406C8.53763 8.62281 8.27951 8.59906 8.27951 8.59906C6.39576 8.10093 5.89201 6.12968 5.89201 6.12968C5.89201 6.12968 5.86888 5.86281 6.04138 5.71968L6.38138 5.43843C6.55138 5.30343 6.65888 4.97843 6.48576 4.65906C6.02326 3.82343 5.71263 3.53531 5.55451 3.31406C5.38826 3.10593 5.13826 3.05906 4.87826 3.19968H4.87263C4.33201 3.51593 3.74013 4.10781 3.92951 4.71718C4.25263 5.35968 4.84638 7.40781 6.73888 8.95531C7.62826 9.68718 9.03576 10.4372 9.63326 10.6103L9.63888 10.6191C10.2276 10.8153 10.8001 10.2003 11.1058 9.64343V9.63906C11.2414 9.36968 11.1964 9.11468 10.9983 8.94781C10.647 8.60531 10.117 8.22718 9.70076 7.98406Z" fill="url(#paint3_linear)"/>
<path d="M8.23053 5.06505C8.83116 5.10005 9.12241 5.4138 9.15366 6.05817C9.16491 6.31005 9.53053 6.29255 9.51928 6.04067C9.47928 5.19942 9.04053 4.73067 8.25053 4.68692C8.00991 4.67255 7.98741 5.05067 8.23053 5.06505Z" fill="url(#paint4_linear)"/>
</g>
<defs>
<linearGradient id="paint0_linear" x1="7.73728" y1="-0.0078125" x2="7.73728" y2="15.0054" gradientUnits="userSpaceOnUse">
<stop stop-color="#AE93E5"/>
<stop offset="1" stop-color="#7F34AA"/>
</linearGradient>
<linearGradient id="paint1_linear" x1="9.44196" y1="2.68555" x2="9.44196" y2="6.95352" gradientUnits="userSpaceOnUse">
<stop stop-color="#AE93E5"/>
<stop offset="1" stop-color="#7F34AA"/>
</linearGradient>
<linearGradient id="paint2_linear" x1="9.12014" y1="3.66895" x2="9.12014" y2="6.56235" gradientUnits="userSpaceOnUse">
<stop stop-color="#AE93E5"/>
<stop offset="1" stop-color="#7F34AA"/>
</linearGradient>
<linearGradient id="paint3_linear" x1="7.53855" y1="3.11914" x2="7.53855" y2="10.6564" gradientUnits="userSpaceOnUse">
<stop stop-color="#AE93E5"/>
<stop offset="1" stop-color="#7F34AA"/>
</linearGradient>
<linearGradient id="paint4_linear" x1="8.78916" y1="4.68652" x2="8.78916" y2="6.23856" gradientUnits="userSpaceOnUse">
<stop stop-color="#AE93E5"/>
<stop offset="1" stop-color="#7F34AA"/>
</linearGradient>
<clipPath id="clip0">
<rect width="15" height="15" fill="white"/>
</clipPath>
</defs>
</svg>
