<svg width="15" height="15" viewBox="0 0 15 15" fill="none" xmlns="http://www.w3.org/2000/svg">
<path d="M14.3335 11.5031C14.0072 10.8326 13.6386 10.2339 13.2821 9.65492C13.1568 9.4514 13.0272 9.24096 12.9024 9.03202C12.7345 8.75124 12.6523 8.5518 12.6437 8.4046C12.6353 8.25992 12.6929 8.04525 12.8255 7.72795C13.0239 7.2507 13.2352 6.77263 13.4397 6.31035C13.6215 5.8994 13.8094 5.47444 13.9895 5.04707L14.0299 4.95112C14.3814 4.11707 14.7447 3.25464 14.9394 2.20367C14.995 1.90235 15.0528 1.45644 14.9135 1.06499C14.7741 0.673435 14.5158 0.557387 14.3338 0.504235C14.2449 0.478112 14.1605 0.475951 14.082 0.475951L11.8025 0.472485C11.4084 0.461232 11.135 0.781546 10.986 1.42479C10.8667 1.93852 10.7259 2.53388 10.5628 3.09866C10.2506 4.18896 9.85394 5.44475 9.27902 6.49105L9.25347 6.53767C9.21433 6.60931 9.15038 6.72647 9.11753 6.75334C9.05525 6.68623 8.98338 6.30236 8.98666 6.10126C8.98675 6.09629 8.98678 6.09136 8.98678 6.08644L8.98476 1.56993C8.98476 1.54697 8.98382 1.52401 8.98204 1.50125C8.93091 0.856903 8.83124 0.210948 8.23651 0.0096959C8.21744 0.00321525 8.19805 0 8.17865 0H5.8075C5.36139 0 5.18918 0.38368 5.00001 0.763476C4.94526 0.8742 4.8673 1.17651 4.94142 1.53591C5.01642 1.89958 5.10862 1.93048 5.18198 1.95429C5.35716 1.98831 5.574 2.28883 5.61537 2.76759C5.69714 3.69784 5.70716 4.693 5.64695 5.89785C5.63016 6.22133 5.59893 6.46719 5.54854 6.67166C5.5346 6.72828 5.52235 6.76334 5.5138 6.78399C5.50014 6.77454 5.4789 6.75646 5.44949 6.72194C5.26791 6.50889 5.13106 6.17767 4.99872 5.85746C4.47015 4.57775 4.02554 3.16437 3.63931 1.53591C3.48026 0.868608 3.18125 0.495896 2.79793 0.48625C2.06762 0.465401 1.39217 0.465904 0.733694 0.487858C0.423116 0.497101 0.205322 0.664744 0.0862587 0.986215C-0.0329508 1.30829 -0.0285856 1.71893 0.0992666 2.20694C1.01322 5.69192 1.84308 8.22712 2.78996 10.4272C3.45668 11.9761 4.12781 13.0513 4.90204 13.8109C5.71551 14.6089 6.63291 15.0001 7.69721 15C7.81824 15 7.94138 14.9949 8.06615 14.9847C8.72279 14.9334 8.98995 14.4856 9.0191 13.3889C9.03544 12.8093 9.07306 12.3398 9.20358 11.9319C9.24008 11.8177 9.28127 11.7411 9.31374 11.7271C9.34825 11.7123 9.40945 11.7486 9.47751 11.8244C9.60193 11.9629 9.70907 12.1508 9.79717 12.3158C9.88646 12.4834 9.9767 12.6566 10.064 12.824C10.2499 13.1805 10.442 13.5492 10.6434 13.9009C11.0987 14.6969 11.6237 15.0619 12.2042 14.9854L14.2903 14.9871C14.297 14.9871 14.3037 14.9867 14.3103 14.986C14.5509 14.9585 14.759 14.7301 14.8811 14.3591C15.0282 13.9124 15.026 13.3466 14.8751 12.845C14.7176 12.3234 14.5132 11.8746 14.3335 11.5031ZM14.3608 13.8553C14.332 13.9426 14.2965 13.9586 14.2782 13.9624L12.1926 13.9607C12.1843 13.9607 12.1759 13.9613 12.1677 13.9625C11.7568 14.0212 11.4076 13.7735 11.0699 13.1832C10.8783 12.8485 10.6908 12.489 10.5096 12.1412C10.4213 11.9718 10.3299 11.7965 10.2382 11.6243C10.1244 11.4112 9.98373 11.1663 9.803 10.965C9.53241 10.6638 9.30817 10.6729 9.16775 10.7336C9.02879 10.7937 8.83127 10.965 8.67966 11.4394C8.48325 12.0533 8.43992 12.7155 8.42229 13.3411C8.41209 13.7237 8.37436 13.8248 8.35859 13.8505C8.33794 13.8841 8.26892 13.9433 8.03861 13.9613C6.93189 14.0506 6.00311 13.7107 5.19882 12.9216C4.49915 12.2352 3.88649 11.2492 3.27082 9.81884C2.35016 7.67978 1.54009 5.20266 0.644338 1.787C0.611877 1.66327 0.601857 1.58605 0.598957 1.54471C0.621808 1.53185 0.666457 1.51492 0.744739 1.51245C1.39654 1.4908 2.06492 1.4902 2.78864 1.5109C2.88773 1.51341 3.00055 1.5644 3.08598 1.92284C3.48952 3.62434 3.95566 5.1051 4.51113 6.44986C4.65862 6.8068 4.84219 7.2511 5.11199 7.56764C5.35911 7.85782 5.55965 7.84395 5.68439 7.78126C5.8092 7.71851 5.9824 7.54418 6.09906 7.07054C6.17433 6.76525 6.21982 6.42147 6.24235 5.98712C6.30672 4.69837 6.29529 3.62691 6.20647 2.61628C6.14386 1.8922 6.05775 1.29196 5.7143 1.02485C5.7753 0.97039 5.71211 1.02485 5.80756 1.02485H8.14771C8.27938 1.07549 8.30545 1.13497 8.31439 1.15531C8.3523 1.24177 8.37398 1.44629 8.38722 1.6061L8.38921 6.08096C8.38394 6.50994 8.50552 7.46134 8.91949 7.72223C8.92288 7.72439 8.92631 7.7264 8.92974 7.7283C9.30662 7.9395 9.55591 7.4833 9.68973 7.23819L9.71358 7.19468C10.3434 6.04851 10.7674 4.70928 11.0987 3.55205C11.2714 2.95447 11.4177 2.33635 11.5413 1.80353C11.6032 1.53632 11.6595 1.49231 11.7939 1.49718C11.7957 1.49728 11.7975 1.49728 11.7994 1.49728L14.0818 1.50075C14.1349 1.50075 14.1903 1.5018 14.2333 1.51441C14.342 1.54616 14.3868 1.58485 14.4016 1.60087C14.4031 1.63056 14.4027 1.71597 14.3699 1.89421C14.2043 2.78789 13.8844 3.54718 13.5457 4.35108L13.5052 4.44718C13.3292 4.86476 13.1434 5.2849 12.9637 5.69127C12.7566 6.15953 12.5425 6.64367 12.3395 7.13229C11.9055 8.17065 11.9436 8.85971 12.4852 9.76559C12.6132 9.97985 12.7444 10.193 12.8713 10.399C13.2311 10.9835 13.571 11.5354 13.8743 12.1587C14.0331 12.4869 14.2131 12.8811 14.3443 13.3156C14.4127 13.543 14.3959 13.7485 14.3608 13.8553Z" fill="#F3F3F3"/>
</svg>
